<mxfile host="Electron" modified="2024-10-25T08:12:56.042Z" agent="Mozilla/5.0 (X11; Linux x86_64) AppleWebKit/537.36 (KHTML, like Gecko) draw.io/24.4.0 Chrome/126.0.6478.234 Electron/31.4.0 Safari/537.36" etag="dmn2lBRv4jnc8I-ex9f6" version="24.3.1" type="device">
  <diagram name="Page-1" id="905Xo-ghS5t8lJQtF9B2">
    <mxGraphModel dx="1434" dy="827" grid="1" gridSize="10" guides="1" tooltips="1" connect="1" arrows="1" fold="1" page="1" pageScale="1" pageWidth="827" pageHeight="1169" math="0" shadow="0">
      <root>
        <mxCell id="0" />
        <mxCell id="1" parent="0" />
        <mxCell id="GE2y2JJj0jx4YuX15eOx-8" value="100" style="rounded=1;whiteSpace=wrap;html=1;" vertex="1" parent="1">
          <mxGeometry x="750" y="250" width="130" height="110" as="geometry" />
        </mxCell>
        <mxCell id="GE2y2JJj0jx4YuX15eOx-12" value="" style="ellipse;shape=cloud;whiteSpace=wrap;html=1;fillColor=#f5f5f5;fontColor=#333333;strokeColor=#666666;" vertex="1" parent="1">
          <mxGeometry x="755" y="260" width="120" height="80" as="geometry" />
        </mxCell>
        <mxCell id="GE2y2JJj0jx4YuX15eOx-1" value="" style="rounded=1;whiteSpace=wrap;html=1;" vertex="1" parent="1">
          <mxGeometry x="350" y="400" width="130" height="110" as="geometry" />
        </mxCell>
        <mxCell id="GE2y2JJj0jx4YuX15eOx-2" value="" style="rounded=1;whiteSpace=wrap;html=1;" vertex="1" parent="1">
          <mxGeometry x="350" y="250" width="130" height="110" as="geometry" />
        </mxCell>
        <mxCell id="GE2y2JJj0jx4YuX15eOx-3" value="" style="rounded=1;whiteSpace=wrap;html=1;" vertex="1" parent="1">
          <mxGeometry x="349" y="560" width="130" height="110" as="geometry" />
        </mxCell>
        <mxCell id="GE2y2JJj0jx4YuX15eOx-4" value="" style="ellipse;shape=cloud;whiteSpace=wrap;html=1;fillColor=#f5f5f5;fontColor=#333333;strokeColor=#666666;" vertex="1" parent="1">
          <mxGeometry x="355" y="415" width="120" height="80" as="geometry" />
        </mxCell>
        <mxCell id="GE2y2JJj0jx4YuX15eOx-5" value="" style="ellipse;shape=cloud;whiteSpace=wrap;html=1;fillColor=#f5f5f5;fontColor=#333333;strokeColor=#666666;" vertex="1" parent="1">
          <mxGeometry x="354" y="265" width="120" height="80" as="geometry" />
        </mxCell>
        <mxCell id="GE2y2JJj0jx4YuX15eOx-6" value="" style="ellipse;shape=cloud;whiteSpace=wrap;html=1;fillColor=#f5f5f5;fontColor=#333333;strokeColor=#666666;" vertex="1" parent="1">
          <mxGeometry x="354" y="575" width="120" height="80" as="geometry" />
        </mxCell>
        <mxCell id="GE2y2JJj0jx4YuX15eOx-7" value="100" style="rounded=1;whiteSpace=wrap;html=1;" vertex="1" parent="1">
          <mxGeometry x="560" y="250" width="130" height="110" as="geometry" />
        </mxCell>
        <mxCell id="GE2y2JJj0jx4YuX15eOx-9" value="1" style="ellipse;shape=cloud;whiteSpace=wrap;html=1;" vertex="1" parent="1">
          <mxGeometry x="770" y="260" width="45" height="50" as="geometry" />
        </mxCell>
        <mxCell id="GE2y2JJj0jx4YuX15eOx-10" value="2" style="ellipse;shape=cloud;whiteSpace=wrap;html=1;" vertex="1" parent="1">
          <mxGeometry x="815" y="295" width="45" height="50" as="geometry" />
        </mxCell>
        <mxCell id="GE2y2JJj0jx4YuX15eOx-11" value="" style="shape=image;verticalLabelPosition=bottom;labelBackgroundColor=default;verticalAlign=top;aspect=fixed;imageAspect=0;image=data:image/png,iVBORw0KGgoAAAANSUhEUgAAAn4AAADuCAIAAAAoS51dAAAACXBIWXMAAA7EAAAOxAGVKw4bAAAgAElEQVR4nOzdd3wT5/048I/2lrUsWZYtee+FwWBjm00SIAMyIGSQJmmbpEnThnR821+626RN03wzm3yTlkwSZghksDEYzDZ47ylLlrX3Xr8/zhzCGFtm2Izn/fIfp5vPc3e+zz3j7ggKhQKmSHJycm9v71RtHUEQBEGmBHGqE4AgCIIgtxYUegEA6FQ4ud7984f9U50QBEEQ5OaHQi8AgMcH726gPPWAP04Ynuq0IAiCIDc5FHqHbdpDDoXgx/ejgi+CIAhybaHQO8zthd1HyfctCtKoU50UBEEQ5KaGQu95B0+TYtjhimnBqU4IgiAIcjNDofe8M61EACjND011QhAEQZCbGQq956m0hEAQMhQo9CIIgiDXEAq9F7DaCUIe6uSMIAiCXEMo9F6AQIAwirwIgiDItYRC7wW47LDJSpjqVCAIgiA3MxR6z5PHhckk6OhH+wRBEAS5hlCYOa8oKwQAxxvRPkEQBEGuIRRmzls4M2ixE46cJU11QhAEQZCbGQq9w5h0WFwW2LqP5PVNdVIQBEGQmxoKvcMevCNAIMCHWylTnRAEQRDkJodCLwAAjQpPP+D/vy2UISPq3owgCIJcW+SpTsB1weuDmQ8zpjoVCIIgyC0BlXoRBEEQZFKh0IsgCIIgkwqFXgRBEASZVCj0IgiCIMikQqEXQRAEQSYVCr0IgiAIMqlQ6EUQBEGQSUXi8XhTtW0+n2+xWKZq69en1FJp0V1pOYvkGZUJTpPHrndHThUkcBY8O81j99u0zqlK4ZSbtTo7a15i78mhqU7IzSytXFb2SM5gs9HvCUzmdslU0pJfzaTQyfoe62Rud2x3/KKEI2YOtZmmOiHIzQO9UuO8skdz3FZf3Y6umDhWxeN5NR83WTTjRzhxGq/kgUwACIfDPnfANuRUNRgGW42XkQBxGi9rvlzdbGg/ZAmHwma14zJWglznZHkiGpPSc1Iz1QlBkCtC51DlRWJtp9k6dJklAUECR5Qc03t6yO+e1Du86wEKvcOIJAIvjjXYbAQAQSIn6A9Zta7oF9d1W4z9NhqLIk7jTVueJk7n1e3onmgaREkx4TA0fNcbCoZGncGksu/856lwMDzRNd9MTm5sIxBu4Pd9ynJFnFjGdR56u48O9pzQhAKjn4cIAgB0LjW9Qua2+S479PITOekVMnWTAYXeW1eMlE0kE00DdgDgJ3Asg45waAIRzqx29JzQAEBblbJgWWpCvsjYZxto0E8oDTQWJRQIXSruYtDVMBwKh+GWvvmYBOFwOBxAOxlBrpVbPfQSiAQKjQQAoiRuwBf0Ov1UBlmQwFG3GKgMcjAQCvonFurCYWjd3y/LEyqmSyJDb3y2MHlmHCeWGQ6HLWpH28EB/FYxNoU3c1UmPuey38zCBs5u7xpsGa64Ln04WyjnYsMN3/cO1OsiN5o1PzG1NL7mk+b0cplAzgn6Q5pWY+sBZSiifBwTx0qvkAkSOSQK0WHwdB8fxFcepeSZcYkFYiaPFg6FnWaPqtHQd/qCBlcmj5ZWLotNjqEyKV6HT9dt6aoZ9DiGv8JIZZAz5yVK0vhUJtlt8w22GDqPqCNTSKGTbnthRu+pIW2nOXNuIlfMDIfChn5b7dYOABDKuaUPZ2Nzeuy+/e+cHZG88sdySVRS677+zLmJ7FiGx+7rOa5R1p3fUWQqKWt+ojRbSCITDX1WZZ2u5IHMpl29/Wd1ELUx8sjk0ZJnSoUKLoNLJRAIdoO7v3ZI1WjAFozPEU67Jw1fD36U+2u1TXv68PFjH6ZxszDuTgaAyifzAeD0lo6cRQqhnEskEZwm98lN7V6HPzJhAHDw/Xqn2TNiD9BYlIw5CeI0Ho1Jcdt86iZDZ4068j5VnMZLLYvniBhEEtFj9xn6rM17+yd0I0sgQFq5LKlYQqaTrBpny75+/J+FRCamlsWLkmNYAjqZSnRbfYMtxq5jg5G3pBwRI2NOAl/GoTBIPlfArHa0HRxwRWRk3CykzJIqiiV0DsWudzfv7Y8+5efST0gtkybkxzJiaAFvQN9jbTs44LEP/yNg/+/13/XwpKy4LAGJRDQN2Bt29mD7P0pjZCFlljR7gfzoZy1mlR2fP7FQXLA0+eSGNn3vcCP6GFckIpm45Jcl/bVap9mTNF1C41AdBnfznj68CWzejwtZQjo2XLA0uWBpMja8941aXxTlVxqLsuj5YvznvKcLsQG7wV39YQOe2tNbOrSdZnw2URJ31urs1gPKnhMaKoO8+OfT+2u1QABptpBEIVrUjpZ9/TbdBVWVY+Rxyt3q3ax48ex5TxWmlsYLFVwiiZhaKk0tjSdTSXwZJ7U0nkgiGnrH6e7BEtBluSJjvw0rMQNAMBCKyxRwxazek0PYVS+tXJZ3e5LD6Ok/M2RWOURJMckz43RdFq/TDwB+T0DfbVU1GhgxNDqbcuLLNlWjQdVosAw68cBv07k0LSar1ilO5Wk7LSO6WYmSYwQJHFFSjKpBj12GUmbFEwCM/bbhGZJiSh/KIhKJfae12i4Lg0tNLY2fUHet1FJp9gKFSWnrO601DdgBCPwENh5XAIATyyh/LI8rZqqbDOomg9vmi03huSweh8ENAEQSsezRHHEKT91iVDUaSBSifJqEI2JoWs93XcGuqqFAKLlEqm429NdqTSo7R8TEYg92CVM1GjhiJplKuriblbxIzOLR+QmcjsOq/jNatpCRMktqVtldFi82w/R7M2S5oqF200CDnsWnK6ZJyFSSrssS/X/j2HkUp/FTZkn13RZNq9HQZ2PxaMkzpX53AOsx4HUG9N0WVaOBHcskkomnNrVjR9nQZ8Vr28Y9TGNnIZqdDACKYgmJTEwsiLXrXb0nh3TdFhqLalbbsWSYlHZVoyEchpg4Vt9p7YhuVjQ2peLxvJg41kC9Xt1sDIdCSSVSFp821D58ieTL2LNWZ/lcgd5TQ7ous98ViMsUDNTpQtG1khBJxLTZ8UwejRvL7KsdMqscknR+YmGsps2EpYTGohSvSLOoHUPt5qEOM4QhaUZcZB7JNFLFD/LoXGrfae1gi9Fl9vLj2XaDy2nyRJmFtNnxWfPlNq2r99RQOBjOmptIohAdRnf03azy70hOLY23ahx9tVqPzZ9YGBuXKVA16rGdwOLTZXkifgLbqnF2VKusGkfS9DhBIkcVdSXZ2Flw23zJJdKQPxjZVS17QSKJSmrePXwbMfYViUAkpJfLGDwamUxsqxrQtJniMgSKaRLlWR12i2PROAebjRaNU5zG6zmhaT+kwk5mp9kTTYVUOBQ29tlUjYZQKBwTx6rb0d13WqtqNAy1GT0OPwC4zJ7kkjgylRh56qaXyzixzPpve4L+EIlCTC2N50pYAV+waVefptUYlylILolTNxsDvmA0eZxyt3qp12Fwn/iyjUAklDyQ0X9Gq+20xGXwE4tiT2/uCIfBbfNe3mo9Nh9XzKRzqA6jmyWkZ1QmqJsNeOvvQL1+3tOF6ZUJWHnO7w4YlTYAkLvE4TBgwyPYtC4AGLvo0H9Gi5V+rBqnJEMQlyVor1YBAIFIKFia7Lb6Dq9rxGJ5f6229KHsrHkJqkZ9lMURSTrfZfGe+boLH0MgXtDgmn9HMplKPPJxMx4nOg6rKPThE0yWJ+SKme3Vqq4aNZbUafekxecI+TL2iN5kQgX32GctpnM37AP1w9cjvyeI7Rm/J0hjjf5ZZTKNVPdFNxaHGr7vXfw8Py5LaOizAYAgkSNO4ynrdI07e7EElD6UTWNP7PPMY+fR0Gvd/85ZvPjVX6ut/GF+Sqm0r1YLAD6X36j0A4DfHQixKRcf5XEP07hZiH4nswT09kOqrqNq7GdkwRpLGD+RM+oeyF6goDLJRz5qtutdAKCsA7fVlzEnoee4BitwiNP4BALhzFcdbttwIa/t4EA4PLG6awqdfOTjerfVCwDGfuvsNblps+MbvusBAJ87sP+dOp9r+OqpPKsLBsOKaWImj4bdY/Hi2TQ2pe6bbnXT8H1hZ4068lwdOwtkKilttsw65DzxZRuWbL8nkDZbFn3iWXy6vEhs6LWe3NiOjXGY3Pl3JCcVS7qODeKzWQedrQeUAGAZdPCkbMV0CY1FiTIqjJ0Fj91nGrBJs4Ut+/qxHU9lUoQKbv8ZHZajca9IGAJA7VedwUAIANoPDRSvSI9NjsE6kFoGHQAQDIYAwGH0jHrJGkMoGMYW4cnY2NpGVK4EfEFNmyk+R0Chk7FbLhKZGJcp0HVfEDhDwdCZrzqxWHvmq855TxemlkqxWooo8ziFbvXnegPeoKHPGvAFCUSCsk5n6LNSmWTTgEPfazX0WfE75YnCzlcSlQgA8VlCAgH6z+iIZCL2FwyETAN2kYJ7NXMCoO8+X4XgMLgZMTRsmC9jM2JoqgZ9OAx4GrRdZiqTwomN9lOJQX+IxqJwJSx8TGTMpnOo/ASOpt0UWYwOh8L4JVKUHAMAAxHVv1hVMDY+klntMEVUlE2Izx3Ai7A+l9/nCTC5VOxnbCpvRAJUjRNriR83j16nH4+7RBKRQCJY1A4Gl0YkRfVfNu5hGjcL0e/kcCjce2rC/byIJII0k2/stznNHjyFum4LAAjPncxBfxAAYlPO16VNNO4CgFFpw+IuAJjVDqfZE3suC6FACN/hRBKBSCZa1HYAYAno5xIQAgChnEskn9/t+Lk6bhb4CRwShTjYbMSTjd/8RUmUxAUCRDY2qRoNoWB4xFHQ9Zz/b7Ub3QCA/8OOLZqjMNhipLEogsThn9IsAYFAwG+worwiGZX24LnzGavXYcRQJ7AjroyqQU8kEeOzBdhPSQafTCONqBgw9NnwMq7T7HEY3KKk4Z08aVfdy3ZLl3oJBAKZRgQASRrP6/J77D4KnSxMiumv1VLopGAgfNl9mkhkIgAEfSE4d1GY/WjOKAkgEibUBjY2r+t83WAoGCKShu/0sQRkzkvMnJc4YhEqM9piX/thVcn9GZVP5DnNHqvGaeizqZsMeI8wFp8OACOeQo7E4FBDwVDkHSt2bWVwR15unMZLrmRcvgsLDaFAiHAu7GEbwiufAcBt9U1o5ePmkUgipJbGx+cIWUJ6ZB9sIpkQCkax/vEO07hZiH4ne+y+iXZiAAA6l0YkE2NTeEt+WTJqCgFAeVYnzRbmL0nOnJtgVjvMaoeqQT/RKr4R+XJbfSIFl0AALBrG5wqTpsdxJUxSRHDF72/MKru6yZBYGBufI7RoHNZBp7rZgDcBjpsFBpcKcEF1l9vqm9DNAx07TNbzawgFQl6nj8G9IG5FnquhQBgAiMSo+u1HcxQ0baa825Lic4RY4TI+R+i2evGm3yivSPgtDgBgVeWE6G4irwqj0uayeGX5sVhNnixX5HMHtF0XNFB6HRecJ16nP0Y6XDaYtKvuZbulQy9fxi6LODa3vTADG0ivkKVXyHpOaLAaoctA51LDYcA7VgDAiQ1t+A0a7iqfAWNeIdqqBowDI+uFsJvZaFjUjqr36mNTYgRyrjglJj5HmFAgOv55ywSuSqPPOXKs3xtFmJrQFi7laj+glL8kJSFfpKzTtR0c8Ln8YYDUWdK4TMGEnoSa2GG6eM3XfidrWo09p0Y2tHvPneo+d+DIR01COUeo4AoVMVnzElNmSQ//tzHyfyEKFySYQIDwubM7oSC2cFmKoc/W8F2Px+YLhcMiBTdzbmLkTq77prvnhEaUEiNM5CaVxCXPjDu9pUMXUSc0dhZgnP+ky3R1Vzl2FvzugL7HGpclaNrTR2NS+Amc7uODI2Ye/4o01eFJ1ajPqExg8el+bzA2JaavVjvigjmizYtAIox47HAyrrqX65YOvTa96/j6VhKVWPJAZmeN2thnk+WJ4jL5tVs7AcA9sYvFeVgNoV3nxI461owR8AaxBpLJh1ebW67sHR1YA4ymzdRCgLw7kuVF4hgpG8sUlscxqq/ddh8/gRPZmoVVr+EtgtcaVo5h8Gh4D8wRpZBxjZ1HIokgyxVqWo1YQyyGRBm1lDD6f/64h2ncLFzrneyx+UKBEJlGGvtECofChj6boc8GoJLlioruTpXlCruPT6B+e0TVK51L9diHC5GJBbEeh+/kxjb8AipMHKUK0aZz2XSunuMaloBe+UR+0nQJFnrHzQK2k5kRCWDEUCd08+Q5twZ8E0Qykcaimi+3GeWi9Ud1FNQtBnEaT6TgskUMAgGwNxZgrtoV6cpD2JhrUDUaMioSZPkin8tPIBIubiFi8i44TxhcmufcqT7lV91x3dJtvQFv0Ki0YW+oGKjXG5U2GotiGrAblTaj0ua66LGKaBAIkLNQTiAQ+mqHm9w0rSYIQ0aFbMQd2Yjz5toxqx1umze5JI7KuOBOa0IJoEQsGw6D0+iBiCoyj91nVtmlmQKumInPRiCcrwHDOoonFonxqfIiMT5+EmAN4YkFsfgYWa5oQmsYN49wYWmJK2biLU+R/N4glUnGmwNw4x6mcbNwrXdyKBga6jDHJvMECRd0wqIyKfhNBuXCxDuMbph4RaVQzo3sqcDi0/EshLGHus/tZxKFKJ8mjlyWTCNF/p+5LN5gRLvDuFkwqxxBfyg+V4j/tyYWxsJEYN36Ig9TQr6ISCJM5lEAAG2HOegPSbOF0myh3eDGOmRhrtYVKeANAgCdM7G+iheuIQAAl+rt6LZ6Df02Wa5Ilhdr07lsF73jSKjg4mnGHuoz9A/v5Cm/6o7rli71YgRyjtvmdVu9BALwEzh4t8+JrSSBnVoaT2NTxKk8loA+2GrEH711GN3th1WZcxIqHs/VtJp8ngCLTxen8qxaZ5RvvKJzqFhDI0fMAAC2kI494+tx+KLpCBYOhRu+6y1ZmTHnRwUD9Xq31UvnUAWJHCaffuDdkU/HXkrFY7kOo8eksnsdPpaAkTRD4jR5zBF3lI27+soeyZm9JldZp3MY3HQuVZLO76pRa9pMAKBuMibNiMusTKBzqHadS6jgSrMEQ+2m6F+WKUjgYPVLFDqJSCbiTzmb1fZoHlwxDdh1XRZFsYRIIppV9thUHt4xJ3pj5DEUDGu7LPHZQuxlokw+PWm6xGH0XFxKNint8dnCgmWpQ23GYCDstnqx+DTuYRo3C1e+kzmxDCqDAueKfbx4Np1DBQC7wY21/LXuV/ITOLMeyh5o0Nu1TjKdHCNhitP5h//TiJUzchbIOWKmrtvitngpDLKiWBIKhDRtE3uC3O8JlD2c3XdGSyQSk0skAW+w6+hwfelQuzl3saLkgQxNu4nKICcWikfUKMZlCjIqE4baTA6TmwAQnyuiMsjqpvMFprGzEPAFu44OZs5NmLU6S9Nu4ogY8dnCCVVROs0eZZ1OXiSeuSpT22lh8elJMyQui7fvjHZCO2EM4x4FAAj6Q9pOszRbQKaQ2qsHIhe/8ivScE5NHo/Dp5gu8Tr9WPO8oc86oX1lHLBDGHIWKnpOavyeYMAXHFE3oGrQF92dyuTRWvaN8nS13x0ofSi774yWRCImz4wLeIN45crVyuO1g0IvCBK5JqUdADhiFoVOwh/PnZDYFJ4oOcbvDli1ro4jqsjqHQDoqlE79K6kkrjU2fEEIsFj85kG7CNeizEGaZYgZ5EC/5kyS5oySwoAyrO6xl29l17uPEOfteaT5rTZMnlRLIVO9jj8Nq2zrWoCLdn9Z3SSTH7KLCmZSvTY/Re/hcCudx35qDG9XCbNFlAZFK/Dp++1mlXDF/1QMHTii9bMeYlxGXx5YazH7us6Oth5ZAJ3OSUrM8k0Ev4Tf73GvrfORNmL5+z2rqwF8vgsQXyOUN9rbdrTV/JAZmginY3GzmPDdz2++YlxmXx5YazD6K7/tlsg514cepV1OiafFp8jjM8REggXvFJj3MM0dhaufCdnzk2UpPPxn0V3p+LbxfrHehy+Ix81pZfHS9L58sJYnyfgNHo6qlV4U66m3URlUhILY6kMit8dsGgcZ7apsTqS6A22GH3uQMpMKYVGMg86Wvcr8c5lfaeHSGRCYpE47/Ykj90/UK9zGD3T703Hl7UMOkxKmySDL2eLQ4GQw+A+s61TE/FI7rhZ6DqqDgVDSdMlOQvldr371JaOWQ9mTSj9Tbv63FZvQkFs7mKF3xscbDG2HRwIXEH7+gjjZgEz2GKMzxHChQ+PYa7wioQJh8O1X3XmLJDnLFJgXd6ifKUGzmFwN3zfk1oaX3RXKoFIwF+pgRtqNwW8SSQqcdT3/6ibjAF/MGWWlEIlmQcdLfuU7ojebVclj9cOQaFQjD/XtZGcnNzbG1XkQJCrTpLOn3F/Ru3WjqEO8/hzX5dugiwgyBiIJOKi56eZVY5Tm9sjx2Nvs7qSnrBT7pZu60VuKSP6Q8am8m64z0PdBFlAkOjJcoUUOvn6KapeRajCGblVZM1PZPHpum6L3x0QyrmKInHfGe118la5KN0EWUCQaEjS+dj70p0mj7bzJvysOwq9yK3ConbwZZyseYlkKsll8bYfGrj4Ycfr3E2QBeTmxollZl30TphIum5LfxQ9znIXK+gcqmXQUf9dz2W8EO36h9p6EQRBEGRSobZeBEEQBJlUqMIZufk988wzY8/w3nvvTU5KEARBAIVe5Bbxzrp3LjXpuSeem8yUIAiCoApnBEEQBJlUKPQiCIIgyKRCFc7ILSc/NfzSDwJ5KSE2E+b+ZPK+/o0gCIJBofd6wY2NK1r6YMfRfUOdTVOdlpvcGz/zS0Xhv3xE7h0kaIxX+7O9CIIg40Gh93rBiZVWrvmZTa9BofeaYtIhQx7eUkX6ci9p/LkRBEGuAdTWi9xamPQwAJhsU50OBEFuYajUCwDAFsTOeeyFtLIFrBihzaBp3PPVkc/fDgWDAFC68kcLn/rtJz97QNV0Gp+/aOmqZS/+/ctfr+k5fRgbI83Ir1zzs8S8GRQ6w9DfdXTD+y1V32CTyFTar3e2nd7+qVndP2P5Go5Qou/v3P32H9UtZ7AZnv54vzAxBRte9uLfl734d2z4f+8tdlmj/SJNbFLGnB+8kJBTzODynBajuuVs1X9eNQ9GfOSSQCi6Y+W0O1fHJqWHgkFdb9vprz/DEwkAmRW3z37oJ+KkjFAwqG47e+ij19UtF3zNd/Gzv5957+NvrpxV9uDTOXOXMWL4Nt3grjd/h+0EEplSuuqp/MUreNJEr8PedeLAgQ//4TQb8MXpnJjKNT/LnL2YLRR7nQ5dT+uxjf+H78BJQ0AVzAiCTDUUeoEtFD/+7tc0Jrt2x+eWoYH4zIKKR3/Klym2v/wCALRUfbPgx/+TM+/OyNCbM/9Op8XYe+Yo9jO5uHzVy+ususGjG973u10Z5YtXvPQWlcGs+34jvkj23GVDHY3fvvZrEplyx/N/Xv2PT955qMJjtwLAjr+vpdAYoqT0O57/8/FNH3Qdr8IW8Tij/XIwjcV56NXPwhA+te1jh1HHlcRnlC0SyVMjQ++ytS8XLX1Q1Vx7+NO3gn6fNDO/bNWP8dCbu+Du5f/vTUN/58GPXqfQaNPvWfPo6xs++dn9mvbGEdu661evEUmkqv+86nFY5QUz2QIxABCIpJV/+29y8eyGPV+d3PJfrlg6Y/ljspzi/z59l9/jwhZc/ts3korLT25dZ+jrZPKFiXklSdNmRxl6BQIBnT76l+0dDofNNoEyLPbtnwl9phdBEOTqQqEXFj31WxZPuO6Zu3W97QBw9tsvrbrBuT9Ye3zjB9ruVpt+aKDhVPbcpXvf/XM4HAIAJk+QVFRWu+PzcCgIAEQSadkv/mHVqv/z1J1YmDm9/dOHX1s//8lfNezeghWdAYAAhC1/fCbg9QBA1X//ed8f/p0yvbLl4LcAMNhWDwABvxcAjAM9/fXHJ5qF+KxCtlC84+9rG/duw8Yc+extIul8W2ZycXnR0gdbD32/7S8/xXIBAByhZHgygTD/R79228wf//Q+r9MOAG3Vu368bve8J3755a/XXLy5L375KLaSjqP7sDFFSx5ImVH5/eu/OfvdBmxM96nqNW9smrZ01cmvPgIAMo2eMqOyYffWAx8Ml+mPb/wgMoVje+GFF4qLi0edtH379g8++CDK9QCARAAAYHGgwi+CIFPmVg+9JDIls/KOvrpjJnUfmUrDRnafODj3B2sVRWXa7lYAaD6wY8kLf5MXzMSCYvacpQQiqfnAcHlRllMcI5FV/fef4VAQX0Pn8QNJ02bHJmdqu1qwMf0Nx7G4CwBGZTcAxEhkVysXfo8bABSFpa2Hvg/4vNhIPOoDQM78OwHg0Mev43EXAOzG4e+HCBNTYsTxZ779wnuunG1QdqmaahVFpUQyORQIRG7rxOYPI1dybv13eV2Opv078D2gaW9w28yKojIs9Ab9/qDfH5eex+KL8FroyBSObcOGDbt37x51klqtjnIlVArECcI/XxUIhaG6DvVyQBBkytzqoZcrjidTaaklc3+9s23EJCZPgA20Hvr+9p/+KWfBXVjozZl/l3VIpWquxaYKE1IAYP6Tv5z/5C9HriFGgA+7zEZ8GCvgkiiUq5ULVXNt075thUtW5iy4a7CtXtPW0LT/a+y+AcOXJYUCAdPA6N+J4sZKAcA6pIocadEMJOaXsPkim34ocrxxoOfiNQgSkmlM9q++ax4xHt+H4VBw3/t/u+3ZP/xs03Ftd6umvbHj6N6uE1VRZrC5eeSaL8M3r/pyksOBIPz2PXJjNyr1IggyZW710ItpOfjdya3/HTHSfi7kuO2WntPVWZV37H7r9yyeKDF/xrEv3x8x84EP/6FsODFipKG/Cx8Ow7X95OT2V9Ye2/hBSskcRcGskvsen3n/E5t/9+PI2HZ5Cbj4Q5neS7RAm9V92/++dsRIn8uJD9fu+Lzj6L600vny/JKsuUum3bn66Bf/rvrvP6NJxvz58+Pj40ed1NbWVltbG81Kfv4mRS4JP3d/4E8/DJzpILb2oeiLIMjUuNVDr02vCfi8NBZ7RG/eEZoO7EgrXZA0bbZInkYgEFOr8/4AACAASURBVJsP7MAnmdTDRcmx1zC+K/4ctK6nTdfTdnzjB4KE5B9+8N2M5Wvw0GtW9ykKSwWJyVhd9wg2vQYAYuISIkfypInBgN9pMVw8/8XM6j5pRoGmo3FE7fQIdsPQ2W+/PPvtl1QGc80bm0vue7xq3WvRZHzBggVjtPVGGXpb+witfQSdmbzjVf+iklBrH3quF0GQqXGrh96g39d+ZHfO/LsS82YMRPRhZvGEPo8b753bUbPX73XnzLtTqEjT93VgHbIwquZaq25w5r2P132/0W07/ywQTyq3aJTRpwTrz3y+69NE0Fgcn8uJN8FahgYCXg+JfL5Cu6Xq26KlD8557Odf//Vn+GxsQazDpAcA40CPVTeYPWfJgQ/+jhVqRfK0hLzpvbU1Y4dSXHPVN4qisrKVT9V88S4+kkShMrl8rEWZRKYQyRR8f/rcLpteI0pKJxCI4fD4Lb6/+93voklGNNR6AgDEsK5tJQSCIMgYbvXQCwD73385Ma/k4X99Ub9zk7a7lc7mStJyM8oWfvCjO8zq4Ydz/B5X59F92fOWUejMQ+v+Fbl4KBj87p+/WvXyuqfW7anbudE6pOLESuX5Jfz4pLdXz44+GSZVn92onb58jdNssGrVANB7NtrIl1lx+9wfrG2t/t400AMEQu6CuxlcPt7bGQB6z9TU7dxYtGQVVxTXfnRv0O+LS8uNTcpY95N7AADC4ar/vLr8t2/84O2tdTs3k6m0GcvXhAKBQ+teizLxdd9vyqq4Y96Tv4jPLuo/ezQMYZEiPbP8toPrXsOesGKLJD/+cFfb4Z3arhavyyEvmJletrBh9xasl/hkwkIueroXQZAphEIv2I3adc/cVf7ITzPKFhYtWeV2WI3K7kMfv243aCNna9q/PWf+XQAQWduM6T1T89FzK8offnba0tV0Ntdh0g91Nh348O8TSkY4FNz6x2cWPf3/Fv/kd2QaHSbySo3Btvr++uMZ5Ys5AnHA5zUou77687Oth76PnOe7f/1G3XJ22rLVcx77eSgY1Pe2n9hyvnm7ef/2oM9btvqZeU+8GAoGBlvrDn70+mB7Q/SJ3/jSkzPveyJ/0YqUH/066PdZNAMNu7f01h7BZnDbzHW7NiUVlWVW3kEkEi1DqgMf/uPk1nVRrv8qwnpV09FHExAEmToEhUIxVdtOTk7u7R29zy2CXEXPPPPMO+vewYaJBGha79VbCE++TFHrCR4fPPv4c++9997UphBBkFsKeroRubWEwvDaF2SZKFz1jq9jo1cRhxp9EQSZbKjCGbnlrPuWtH4PSS4Js+gwaECtvgiCTDYUeq93q/428oHjSDa9ZucbL01aYm4aXh90DqCgiyDI1ECh93q38f89OdVJQBAEQa4mFHqRW8JzTzw31UlAEAQZdqv3cF6xYsW2bdvGnw9BEARBrhLUwxlBEARBJhUKvQiCIAgyqVDoRRAEQZBJhbpZIeOrzFS8uGz4fdRDFsfT676Z2vQgCILc0FDovS5QyaRNz6/ccKxpw7HGXywrT5MIIsPb43On3TM9CxsOBENGh6tZrd96okVttk1oK3Ozk3hM+vbatonO0Dig/cOWKiwldMq1OmeKk6S/v3feS5v3Nw3oPn56xeke9Tt7Tl7dTcycM23xinni+Fin3VlbU//NF7t9Xv/V3QSCIMi4UOi9YXxf16mx2MlEooTHnpedVJqW8PNPd+pszvGXPGdedpJcxBsj9F5qBovLY1EOAYDD67t2ofdaK10wY81PV/Z3DXz96feyZOnCu+eI42Pf+9tHU50uBEFuOTfqZfQWdLRT2TSgw4Z7tKafLJ5Zninfdqp1alN1oyCRSMsfXWI2WP73pfexkm4oGKq4bVZmflp7Y9dUpw5BkFsLCr03JIfXF/lTEsO+e3pmfqJEzGUBwIDR+n1dZ1XL8DPTkS21APD12tXYwPd1nR8cOB3NDNEgk4grZmTPy0mScNlOn7+2R/3p4XqLy4PPwKZTV5XmzUpL4LMYLp+/X2/56lRLXf/QRPN+eVKzk7g8zu6tB/Aa5sO7j1fcNqu4vACFXgRBJhkKvdeFUDisNFqtLg8AGOxOJnWU4xLDoAs5TDKRKOWxHyzL9/gDxzoHsElZ8aLKTEVNh3K3yUYAmJWW8LM7SplUynd1HQDQMKB9afN+AHisskgSw3712+Fv6Jocbmxg3BnGRSQQXlo+t0AuqWrp3VHbLuIwlxVlZMaLXvx8t8cfwOZZu6SsQB73zZn2AaM1hknPlsUWyCWRodftCyiNVq8/AAAqk8042tZTU1NfffVVAFi5cmUQ+/RudBKS4wFA2aPGx6j7NMFgUJYkjX4lCIIgVwUKvdeFQDD0/CfDX7b/uLpu1Hl+eWc5PtxvsPzPhr1DFgf2s75/6IcfbvcFhkPR93Wdb6xZsrwkCwu9VpcHC+oOj0/ADuG11rhxZxjXoryUIkXcv/ee3NPYjY0526d5edWixfmp35xpBwAqmVSUJD3Q3PvJ4eHcbTvdSiJe8AGD1kE9vhNe2rR/omkYWwyfAwA2sz0tJ/mZ3/7g0M6jO9bvdlidPAH36m4IQRBkXCj03jA+O1Lfb7BSSESZgHvntIz/uavyd5v36+0uAIis16WQiAQCoUNjXJSXQiER/cHQJKStIlPh8vmr2/qpZBI2pktrsru9eYliLPQGgqFAMJQq4fOYdDy1wdCEv5Vrt9urq6sBIBSaWL7IFDIABPxBeaqMwWIkZyoAIOAPUOnUiaYBQRDkCqHQe8No1xjw8uipbvUbj97xSEXh/+48BgBkEvHekpw5WYp4PodIOF+UpJBJkxN6ZXwOk0rZ8NMHRoyPYdCxgVA4vO7Q2R/OL1731PJevaV7yHiiW13bOzjRDel0ujfffPMyUhjwBwCATCHV7D1p0lv6uwYAgEwh+33o4SIEQSYbCr03pH6DRW93FcjjsJ/PLp45Pyd5T0PXJ9V1NrcXAJbPyCpLTyTA5H2SVmOxv7Hz+IiR7ojAtqu+81S3anqKLEcWOztDfltB2paTLZ8fqZ+c5FnNdgDg8jmhUKj5TBsAEIlEdgyrv0s1OQlAEATBodB7owqFw2w6FQDIJOKcrKSaDuW/953Cp9JGe/p23OrdcWcIBEMjGmgxgxZ7mkTQpTUFx6wHNjrcexq69jR00SnkVx5cdNe0jPVH6idc6XxZVL2DACBPkZ092oiNkSVJSSSS6qKSN51O5/F4wWBQr9dPStIQBLnloHc435AUIp6Ey1IaLNjPMIRD4fMhLCmWV3iuQBzJ5fVzGTQy6ZIHfdwZdDYnn8Vg0igjxh9uVzKolBUl2ZEjKSSigM3AhskkYuS7ODz+gMHuIhGJBMLEyuUSiWTt2rVr166d6ILdrX02i33m3GLqucRX3l4KAHgkxs2YMePdd9/9y1/+MqH1IwiCRI/E4/Gmatt8Pt9isUzV1jHZ2dltbZd8u9N1YlqSNCte5AuGEgTc3ATx/OykJ+YVU0jEf+87NWi2h8LhFLFgdrqcy6TxmYzyjMSnF5ZorY4YJv2rU63+iCdwuEz6rFRZHI8TCoclXBaJSMRqp6OfweXzL85PTYsTkAhEuSjG5fO7vH4A6NWZM6TC2wvSUsQCHoueESdcmJfyzOKZBrurR2cGABGH+f6Td8n4HHEMO1EQc1dxRkWm4mBr7/EJ1vfGxcU9+eSTcrl8y5Yt4fAECszhcNhhd5XOn55dlEGhUipum1W+eFbj6dZdWw6MmDMpKam0tNRisezcuXNCaUMQBIkSqnC+YdxRkAYA4XDY5vE1q3Rfn25rVg33unpnzwlbhacsLXFxXqrKZHtr9/HcBLFcFDNiDXsbu6Q8dmWmojJTTiAQLn5jxrgzNKt07+49eW9J9nO3zSIQ4F/fHdXbnAAQCof/+nX13cWZc7OTHq0oDARDWpvjQHMP/tiu3ePb19STnygpTU8kEgg6m/PTw/XfnJnUm57jB06HgqHbVsy797FlTodr/47qb77YffFsaWlpALB79yiTEARBrgqCQqGYqm0nJyf39vZO1dYxK1as2LZt29SmAbmuvP7662w2+9lnn/X7UednBEGuCdTWiyDncblcuVy+efNmFHcRBLl2UIUzgpxns9nuv//+qU4FgiA3OVTqRRAEQZBJhUIvgiAIgkwqFHoRBEEQZFKh0IsgCIIgkwqFXgRBEASZVCj0IgiCIMikQqEXQRAEQSYVeq4XAT6L/tFTK/CfT3643Wh3XaNtZctiX1m16N29J/c2dl+jTSBXbuWs3IfKC55Z963GYo9+qck8kRDkhoZC73WBSiZten7lhmNNG441/mJZeZpE8PS6b/CphfK4P90//+KlNp9oXl/TcOVbt3t8f9hSBQDzc5Ln5SRd+QpvCEmxvDceXfLl0caNx5sA4K8rF+YliLFJvkBw0Gw/1Na3o7Z97M8gXgtzs5N4TPr22uv9qx4Xu1FOpOIk6e/vnffS5v1NA7qPn15xukf9zp6TV3H9GXmp0ysKkzMV8XIJkUj8w0/+odcYr+L6kZsACr03jMYBbaNSGzmmWX11PigbCIbqlUMAkC2LvSorHEObWr/yrU2B4GTHs4vdPzPX4w98V9cROfKTw3WBYIjLoM1KS3issihdInz12yOTnLB52UlyEW9qQ++Wky1f17b5A8HxZ40wmSfS9Wx6RWHZwhJVj9qgNYmloqlODnI9QqH3htGs0m860TzVqbhSYQDfBC/o14KUx5mdkbijts3h8UWO31nX6fEHAGDj8aZ/PXz77IzEpFhen36KP205+ULh8PVwmG5QOzfv3/zfHQF/4JFn70ehFxkVCr03PCqZ9NrDt1NIxLWf73b7hl/6/9xtM+fnpPx24752jQEA3npsqT8QPNDce/f0TCGbOWi2bzjeeLRjIPqtEAmEe2fmLMhJFnNZTp//bK/msyN1Rocbn4FNp64qzZuVlsBnMVw+f7/e8tWpFvyjgXBhje6obb1JsbxHygtyZGIyiag223bUtle1nP+w1aurb6NTyesOnnmkolAujDE6XNtOt+1p6Ipcw4yU+PtKchKFMRQS0ehw1yuH/lN1ZtQa4/tmZgdD4e217ZfKbyAYqusfUoh4iYIYPPSSScQVM7Ln5SRJuGynz1/bo/70cL3F5QGAGSmyl5bP+bym4Z7iTI8/8Mau43cVZ05TxDWr9f/8tgY/LqVpCffNzFGIeMFQqGPI+EVNI3aAAKAyU/Histl4Ar5euxobGPHpxopM+d3FWQpRTBigbdDw2ZH6bq3pUrmIRCISP3l6RbfOhNUJYwgAH/7oHqPd9esNe0dsFwBGbesdIwtRGiMLWMvL93WdGot9WVGGgM0YMFo/OFA7YhOSGPbK0twihTSGQTM53bW9g5tPNJvOnY18Fn11Wf6MFBmXSTPaXVUtfZtPNAVDE/i68xWyGK2Tti3kBoV6OF8XQuGw0mi1ujwAYLA7B822i+fh0KlSHifyj0omAYAvEHzt2xohm/nUwhnYnGXpiYvyUtfXNEResBQi3vIZWR9W1f5m495+g+WXyypmpMiiT+FTC2c8Ul4wZHWsO3TmUEtfRZb85VWLmFQKPsPaJWVLCtNr2pXv7T359alWjz9QIJdEruG/VWde2rz/w6raUdcfz+e8smpRtiz2m7Ptnx2pD4bCP7ujdNm0jMh5RGzmk/OKNx1v+t3mAwNG208WlURuIlMq+u09c8gk4hdHGz6sOnOiW1WSIqOQRjnDhRzmvOzk/c09Zqf74qnnN8dhAgB2UACASCC8tHzu6tn5bYOGD6tq9zR0laYl/m3VQjrl/P3rNEXcF0cbmTTKH++b7/EFNp1onqaQLsxNxqZWZin+5+5KOoW8vqZh26lWuZD315UL0yQCbGrDgPalzftf2ry/c8hoc3ux4Zc27//27Pn7g5Wzcn+xrNzjD3x6pH7DsUYxl/XKqkVJsbwxcoELhkJHOwfyEyUxTDo+Mis+VsRhVrf342Owje5r6hl1JWNnIRrRZKE8I3GaIu7tPSde3l7NoFL+cN88Np2KT5WLYl5/5PaKDPnRDuWHVbXVrX25CeKs+OHCJZ/FeO2h2ysyFVUtvR8cqG1QaleV5j5/e2nk+t2+gNJo9foDAKAy2SLvIHGpqalbt27dunUriUSKPncIEiVU6r0uBIKh5z/5Hhv+uLpu1HmWTcsYEYqwfiIAoDRa/3PwzE8WldT1axqV2mcXz6zrH9p2qiVyZjKJ+Mau480qHQC8vvNYlkz0SHnB6R51NMmT8ji35afV9Q/95auDWNlBbbY9s6hkSVH61pMtAEAlk4qSpAeaez85PJz4badbSURC5Ep69WYAuFThY2VpHoNK+c3Gfa1qPQDsbuh6+7GlD83O39vYjdd8MmmU3205jpWQ3tlz4pOn752dIW841/5dkhJPJBD+8c0Rw7letZ8drg+HR9ncihnZBAJh26nWiyfFcllef4BJo0xPjp+dnqg22/AG9UV5KUWKuH/vPbnnXHn9bJ/m5VWLFuenfnNmODpuOdlytk+TIRXOz0n+oOq0y+tfkJucLOYDAAFgTWWh3e399Ya9Lq8fAI52Drz92NJHKgr/uLUKAKwuDxbmHR6fgB3CjmwkGZ+7enb+oda+/915DBuzr6nnvcfvXF2W/8qOw6Pu1RGq2/puy08tS0/cVd+JjanIlIfC4Zp2JT4Ptt2c+FEaa8fNwriizQKB8PdvjmDH/fOa+l/dWVGkiDtyLpHPLCqhUyi//GJ3j86MjfnyWCObTsOGH587jcuk/2L97n6DBQD2AOjtrodm52873YrXXrQO6vF/t5c27Y8m5QhydaHQe8Oo6VDWdCgjxygN5+u19jR0FcolTy2YMWC0+YOh/915bETMcXh8WNwFgHA4fLpncElhegyTjpfqxlAolxAIsL+pB19nVUvvj+ZPL1LEYaE3EAwFgqFUCZ/HpFvOrXBCVXxFirhBs731XJzzBYKHWvtWlualxwnxZNvcXrxm0ub22j1eMYeJr8ETCAJAcZJ0b2M3tuHQaHGXy6Atzks53N6vtTounvr2Y0vxBOxr6llf04DXV1dkKlw+f3VbP1bZAABdWpPd7c1LFOOhF9uZNrc3EAxhwcnu9nHoNACQCbixHNbuhi5sPACoTLbWQUNegphEJEbTj7o8U04gEHbVd+EJ8AWCLWp9fqJk7AVxzSq90eGuyJRjoZdAIMzOSGxQai1RnAOTmYXmAR1+v6Uy2gAglsvCfgrZjOz42CPtSjzuAkAwFMb2PJlELE1LaBzQaix2fBO1vYMPzc7PT5RMqM3ebrdXV1cDQGjSu7gjtwIUem8YA0bb2K2z7+49+e4P7syQCv+87eDFAXVE5arZ6QEAEYcZTejFql51Nic+xhcIml3uWM7wBTEUDq87dPaH84vXPbW8V2/pHjKe6FbX9g5GlzMgEQk8Jr034mIKAFqrE980ZkRS/cEQOaIycHd9V0WG/CeLZz5cUdihMbQNGg4092DZjHR3cSaVTP7qZAuM5l/fHfUHg1Ie596SbBGH6fSe74Ql43OYVMqGnz4wYpEYxvn620AoBADBUChw7nodCIXIJCKMtg8BQGt15MhieSx6NM+/xvM5APDKg4sunhRl5AuHw0fa++8uzhSwGSaHOy9BzGcxPjtSP+6CmEnLgtV9/qj5gyEAoBCHGw7ieBwAUBpGD6IiDpNKJhUnSTc9v3LEpBgGbdzkRdLpdG+++eaEFkGQ6KHQe/NIEwt4TBoAzEiWnenVjJhKIl7Q6onFAwJckTCcL1buqu881a2aniLLkcXOzpDfVpC25WTL59Fe1qNKyNiFaLvH++L6XbkJ4vxESYFc8mhF4T3Ts174bGdkSx6TSllalHGyW6W8REeYUz1qrIdzx5DxbysXrirLj8yCxmJ/Y+fxEYvgXaguZfy8jVY6v5Q/bq1y+wIjRkZfMjvc1n/P9KzyDPk3Z9orMuX+YOh4pyr6rV/SVc3CRFY2ipoO5Y6LOtAZHejlHsh1BIXem0QMk/7C0rLOIdPJHvUj5QWNA9pjnRcUkYVsBplExB+oFXNYcNH1yB8MAgCJMDJYYK2nYi4L77dFJZP4TEbr4AUPFhsd7j0NXXsauugU8isPLrprWsb6I/XRXEWDoZDF5RHHsCJHSmJY+KajFAyFG5TaBqV2fQ3MzU56YUnZnOykyDbdJUXpTBply8nxn9FqVulO9ajvLs7cWdeBBe9Biz1NIujSmi7vJRv4PowcKYlhB4Ihi8sbOfJSe0xjtgOAy+fvuIL3M3RpTYNme0WG/Pu6jrL0xNM9atd4tw646LNwqRPpyrMwZLEDgFw0es8yo93lCwQZVMpEO11PCS6Xy2Qy3W631Yp6RN9yUA/nmwEB4IUlZXQK+fWdR7eeaG5Qap+7beaISySNQq7IlGPDbDp1ZqpswGgdUR+rtzkBIEHIHbH+eqUWABbmpeCX0vk5yWQSEX92iEwiRnb09fgDBruLRCQSLrr4Xkpd/5CMz8VfxUAlk+ZmJzm9vs6haK/RkZ1gAWDAaIWIikpsnXcXZ9YrhzqHonoaZ+vJFiqZdN/MXOzn4XYlg0pZUZIdOQ+FRBSwGdGsTW2y6e3O2emJTNpwt/AEATc7XtSk0o2I5S6vn8ugkS/qm13ToQyH4cHSPOKFe1USw44mAbjqtv4MqWhhbgqXQatu6x9/gYln4VIn0pVnwehwtw7qy9ITIztFEwgELoMGAP5g6ESXappCOuKdHjFMeuT5GQ2JRLJ27dq1a9dGfw5P1OrVq9999901a9Zco/Uj1zNU6r1h5CbErpyVGzlGbbZjHa/unZlTpIh7c9fxIYsDAN7YdezNR5f8Yln5bzbuw6+JDo/v6YUlCYIYq8uzOC+VSaO8tXvkSyhrezUOj+/H82d8zWl1+wODZjsW+TQW+56GrtsK0n5377xT3Wopj7N0WrrW6thZN9xRVsBivLlmybHOgV69xeX15ybElqTIDjT34B2dhBymlMcGAIWIBwAyPicvUQwAJod70GwHgE3Hm2alyl5aPuebMx1Or29udpIkhv1hVW30L3Z4Yu40hYhX2zuotTo5DOodhem+QLAmonX8tvzUGCZ9y4nRW3kv1jZoaFXrF+enbj3VYrS79jV2l6UlPFJekBEnbBzQhsPhRGHMrLSE9TUN0byPOgzw2eH6tUtn/+PBxfuaeqhk0tKijEAovL5mZJ18k0pXkSl//vbSmg6lPxDU2Zwqkw0AVCbbl0cbHioveO3h22s6lA6PT8pjT0+O79GZ8Q7D0Tjc1v9gWd7jc6e5fP4R7fFyUQwWw8QxbADIkAqFHAYADBhtVpcn+ixc6kS6Kll4f9/pl1ct/MeDi/c0dg+YbCI2Y2ZqwqYTTVhPiI+qz2bLYv9y/4J9zT19OjOLTk0R80tSZD/7dOeE3kfNZrPLy8sB4M033wwGJ/Z2EVmStKAkBwASkuMBYM4ds10Ol9Phqr4wj0QiEQB8Pt+oK0Fubij03jDyEyUjOoKe6FbVdCgzpaKHZhccbu/HX0Bhcrjf2XvyN3dXrqks/OjQWWyk1ur46lTrw+UFYi5LY7H/67ujx7tGNvI5vb6/bDv0w/nFP5w/nUwi7m7owgud7+8/rbO7FuYmPzm/2OX1H2lXfna4Dq+rtHt8+5p68hMlpemJRAJBZ3N+erj+mzPnX4U4Oz3xyXnF+M/lM7KXz8gGgN0NXe/tOwUAg2b7bzbue6S88O7pmRQSSW2yvbXr+IGIV2qM62inisugLcpL5TJodo+3Y8j4z29r1OeekCYRictnZLdrDI0D2rHXE2nrqdaXls95YFbu+/tOhcLhv35dfXdx5tzspEcrCgPBkNbmONDcE/nakLFVt/X7g6F7S7IfLi8IhcMdGuP6moaLi+B7G7ukPHZlpqIyU04gECJfqbHpRLPSaL2zOPP+mTkkItFgd7WodXsbR38G91LUZlu3zpwq5h9o6R1xZ/NwecGs1AT85wtLyrCBf3139HB7f/RZGONEuvIs9Bssaz/fvao0tzxDzmXQzE732T5N2+BwDbPJ4X5x/e6Vs3JLUmWL8lKcHp/KZPviaMNktvUmpsjueuh2/OfCuysBQD9kHBF609LSwuHwnj17Ji1hyPWDoFAopmrbycnJvb0TuLZeCytWrNi2bdvUpmESYG+zenH97qlOyJRZlJfy3G2z/vZ19anoHmVGkGuKw+F89NFHx44d+9e//jXVaUGmAGrrRW4JwVD4syP1Ub5CBEGutdzcXADYuHHjVCcEmRqowhm5JVRNpO4aQa6148eP33///VOdCmTKoFIvgiAIgkwqVOq9JeBvrEUQBEGmHCr1IgiCIMikQqEXQRAEQSYVCr0IgiAIMqlQ6EUQBEGQSYVCL4IgCIJMKtTD+aayclbuQ+UFz6z7dkKvq+Wz6B89tQL/+eSH26P59uotK1sW+8qqRe/uPRnNq5uvT1eehT/fv0Am4D75wdeRIyd0In31woOH2/on9PZpBLlpoNB7XaCSSZueX7nhWNOGY42/WFaeJhE8ve4bbBL28bvPjtRvvfDr7j9fUjYvO2nt57t6LvzC/GWwe3x/2FIFAPNzkuflJF3h2pArNDc7icekb69tG3/W68yNciIVJ0l/f++8lzbvbxrQffz0itM96nf2nLxaK2cw6aXzZ0ybnS+RxVJpFL3GeLyqtnrn0UDUHwJBbgUo9F7vansHQ+FwkSJuROgtlEtMDveIuLvlZMvXtW3+Cf6TB4KheuUQAIz41Boyqja1fuVbm/AvH19187KT5CLeNQ29V56FP311kHjRx/QmdCKtemtTKJqPOd9oMvJTH/jh3cpu1anqswF/MKsw7f4n7sqbnvX2n/4TDt+MGUYuCwq91zuHx9c+aMiKj6WSSfh3ZuTCGD6Lseei2sJQOBz9V/aQyxMGuNF38pVnIRgKXeEu8F+ze5eppRs0vPLimwPn3hZO+JzwsDPAWQAAIABJREFU3O+fzC7KyC7KaDnbPrVpQ64fKPTeAE71DGbLYnMTxGf7NNiYQkUcAER+DODrtavx4VHbekvTEu6bmaMQ8YKhUMeQ8YuaxnaNYULJqMiU312cpRDFhAHaBg2fHanv1g5/LQ6rwXtr9/H0OOHs9EQKmdSi0r+796TZ6Y5cgySGvbI0t0ghjWHQTE53be/g5hPNJsfwPHwWfXVZ/owUGZdJM9pdVS19m080BaMuGeUlim/PT8uQCvkshi8Q7NAYNh5vjswjnUJ+bE5RRYacQiY1KLV7GrtfWj7n/X2ndjV0AQCVTLpvZk6RIi6ex6FTKXqb83B7/9aTLZEh6q8rF+YliLHhixtK11QW3luS86sv96yclZubIPb4g0c7lB9Vn40sXM5Iib+vJCdRGEMhEY0Od71y6D9VZ7BvKldmKl5cNhufEz+gkR8NjMbYO3mMLKRJBK89fPv6mobNJ5rxkVIe570n7txysuXzI/XYTv7rAwuxSUaHe0RbbzQeLMt/sCwPGz7U2ndxW++ivNTyjESFiMdl0Gxu79l+zRdHG/E242jONLkwZvXs/Kx4EZtOs7k8bRrDZ0fqsU9ZTwLNhV+lDIfDZ442ZhdlxCWIUehFcCj0XhdC4bDSaLW6PABgsDuZ1AuOy+le9ZrKwkK55Hzolcf5g6EG5fl/8pc27weAednJi/JSLl5/ZZbixaWzB4zW9TUNNDJpSVHGX1cu/M2GvV3akV9avRSsA1eDUvvpkXoKiXhbftorqxb96ss9fXoLPs9jlUUHW/v+tr1axuc+tXDGr+4s/83GffhUuSjmlVWLyETinsZulckWy2HOTEtoHNBiXzjnsxivPXQbg0rZWd+ptTnTJYJVpblSHjv6bjjzspOSxfyjnQMai4NNo96Wn/rXlQv/Z8Ne/P7gF8vKZ6TEH2ztax80FCdLn11cErk4h0G7tyTneNfAiS610+vLlApXzsqVC2P+8c0RfJ7/Vp1h0SkKEe9H86dfKhkvLp297VTrhmNNs9ISHpiV6/T5v6hpwCZlSkW/vWdOt9b0xdEGXyAkE3AqMxWfVNdhobdhQIsdxMcqiyQx7Fe/Hd4uHjWjMfZOHjsLXVrToNlekSmPDL0VmXIAONzWj/3s1VmwRD4+t5jHpEefMNyB5p4mlRYA/nL/glFnuG9mtt7m2tvUbbS74njsOwrTC+SS5z76zhtxDzTGmcakUf50//xwGL4922F2uEVc1sxUWYIgJjL0un0BpdHq9QcAQGWyGUfbw6mpqa+++ioArFy5Mhi8ohI+m8sEAJP+SvtkIDcTFHqvC4FgCH/N8sfVdSOmKg1Wnc2JlXQBgEQk5ibENg5oPf4APk/TgA4AcuJHaWMjAKypLLS7vb/esNfl9QPA0c6Btx9b+khF4R+3VkWTPBmfu3p2fmQZZV9Tz3uP37m6LP+VHYfx2TqHjB8dOgsAHRpjepxwaVE6n0U3Oz3Y1GcWldAplF9+sRtvn/7yWCObTsOGH587jcuk/2L97n6DBQD2AOjtrodm52873RoZ3cew8ViTwe7Cy8iH2vr+78m77pyW8eau4wCQmyCekRK/p6Hr3/tOAcCu+s4/3b+Az2Lgi9vd3h9+uB27+wGA3Q1dvmDojoI0SQxbax2+avfqzQAwdkH8+7pOrBjdpTXNSkuYnZ6Ih96SlHgigfCPb44YzpXhPjtcj7f/WV0ebOsOj0/ADmEHdKLG3snjZqG6rf/BsrwEAVdlsmFjKjLlSqMVOygA4PT6sIQ5Pb7LC706m1NncwLApXbi77dU6W1O/GePzvyLZeUVmYr9zT34yDHOtIw4IZ/FeGPXsYMtfdjMm443kS5sl24d1OP/bi9t2n8ZuYgelU6tvL3MbLA0n0FFXuQ89FzvjeF0z2CSiM9l0AAgUypkUCnRf3pWJuDGclhHOwewuAsAKpOtddCQlyAmEaM6Acoz5QQCYVd9F5VMwv58gWCLWp+fKImc7cy5QjkAqExWABBxWNhPIZuRHR97rHMgsl9YMBTGgg2ZRCxNS2gc0GosdnwTtb2DADBiE2PQn4u7BAKBQiLa3V69zRnP52BTpyVJAWBv03D9ahjg4IWfEfQFgnjcJZOIVDKpY9AAAPgaonQ2cicYbWIuC//pCQQBoDhJiseB0FXteDP2To4GVrqtyFRgPxMEXIWIV32uyDs58LhLIhKoZFLnkAkuOgpjnGnY/WhegoRKJuHzRN9sgbPb7dXV1dXV1aHQFbVJP/KT+3lC7qdvb/L7/FeyHuQmg0q9N4bTveqlRemF8rjD7f3nGnoHo1xWxGECgC6iJAEAWqsjRxbLY9GjeYQXu/C98uCiiyeRiMTguWuT1eXFx2OdaMik4dAex+MAgNIwevlVxGFSyaTiJOmm51eOmBTDoI26yMX4LMbq2fnTk+MFLAbhXHDDKwawEKi1nt8JOrtzxBrmZCmWFWUki/mRV20qiQQTYYmIc/5gEN8DALC7vqsiQ/6TxTMfrijs0BjaBg0HmnvwWoErN/ZOjobabOvWmSsy5RuONQJAZZYCImqbJ0d6nGBVaV5WfCybTsVHRh4RGPNMaxs0HGztW5SXUpkp7xwydWqNh1r7oqw4iaTT6d58883LzMM5K9YsnVFZtP7fW9obuq5wVchNBoXeG0OjUuvxBwoVksPt/YXyOKXROiKUXqaJFLr+uLXK7QuMGBlZJghfshIxKjUdyh21IyvljI6oXu5BJhH/tnIhn0X/6lRrl9aEle/XLi0jwEVPwJwzYtKC3OTnby9tUGrf3n3C4HCFQuF8ueSR8oJLr2DC7B7vi+t35SaI8xMlBXLJoxWF90zPeuGznaO2NU6Vw219P5gzLSmW16e3VGTK2wcNeH37JEgQcP+2cpHB7vrsSP2g2e4LBFk0yu/vnTditrHPtDd2Hvv6dOs0hTQ3QXzXtMy7i7Ne3l6NVaJMpqUrFy1eMW/rR9/W7L1qDw0jNw0Uem8MWKeqQkUcg0pJjxNur22NflmsZTGy5hMA/n97dx7W1JnvAfyXhSVAQthljUAAWUSUogiite7WtXWoS0ent3Zanz7XO7Uz06dO57ntM532drHWp9Pbdm6nThet2lqt2tq6VAUDLriAKBCQfYcEkpAQsp37x9EYcUsoJILfz1/hzTnveU/g4ZvzLueE+PqYzJZum6sHIjKazUTE4/RPm5YuDRHpDEZ5i2Jg7W/t1hBRVKD4tu8qNDqDySxwd3N00rVVYlhQmJ/w46NFPxVXsiUcDkfs5dlruBYb7DeVYJG3uvfaKQcJvWxrmJEco+zpfe27Y9bOyeTrM4EHkdnClNS3ldS3bZNdu1nK1MTRe87e9Nsc8PeXu3/IdsqvqF+Tk8b2OYf7if7v4rkBVHKnP6R7yhkjcefz3vg+zzrYHB8aMIAG1HZ013Z07ykqC/MTbn5y7qNpcU6O3hmLpi5YMXv/9p+P7su70zYikcjLy6u3t1elUjmzbXA/wFjvsFFU0xwk9J49NpbH5djf20xETUp1h0abFRfp5eHGlkT4ixLDAksb2803j2Oxw2wRAaJ+Ncjk9QxDyzNTuDf/Mw3x9bGzDYqe3rLmjslxkaODbgQDh8NhR6+NZsvpqsbxktB+t2Lw9fL0dLPr2yF7GWQ7cjo3Vephsy87BDvDZvr31MTRN9dADHOjAk83/pzUWDvPzk62PahE1KBQEZHbLcPtuj6jSOBh21Ntp7t/yPZWotFdbuqYkhCVkyCxMIysot7RZtCd/5Duif38bftiFqePcagGLw83js1faZtKazCZ+Q6OGhBRSEjIhg0bNmzYwHH8C8S0eVmPP7Xgp2+PHvzmbnO4VqxY8eGHH65evdrR+mEEwFXvsFFU3USUsWxiUo/eUN5809VhVKAv++812NeHiOJDAwKEAiJqUKhVOj1D9GV+8Yb5WW8tn3WktNqdz5ufFm+yMNtkxf0Oca6mpUdv+P30h/YKy3qNpuYuTWWrgogaleqvC0pWZqe+u2qOTF7fozeEin3So8Oq27vsX/zz8ZGiN56Y8dbyWYcuXW1QqgN9BBNjI3adLmXXvWzNu5AYHvS3ZY8cuVxd297l7ekeE+yXERP+X18ctOd+1FWtSoVG99sp43wFHkqtfkxYYEZsuO2ynMuN7UXVzfPGxbnxuOXNneNHh4bfPHPnVGXD2unpryyZWlDZKBS4z0qJ7de7HiD0ChX7EJEkUExE4X7ClMhgIlL29DZ32XXH7P+YNl4SKD5X09ym0goF7nPHxRlMZtn1ZT9WpY3tUxKi1s/JlMnrjSZzu1prvQS8p7t/yHaeQn553bqZGfPT4krq27pvnqKVGB7Ezhb29nR343HZ3YmovLnTdvnynf6QPN340lH+7DYcIrG3J1tDn9HMbnDmauNvJiW/vDjn4MVKhphMaaRD3xuIKFMasTIrtUDe0NSl5hDljJEIBR79ptTZw8fHJzs7m4i2bNni0OKipPHxuc8s7laojAbTvOtroImoVl5fdr1LhsXlconIYDA42jYYARC9wwZ728iYYL+88jrLzWO0q7JTJ8VGWH98Yd5k9sWmHwryK+qIKK+8zmi2PJaRuCo71cIw8hbFNlkJO3fUlrbP8Lc9J9ZOn7B2ejqfx/25pIr9h0hEu05frleoFkxIWDYxicfldmp0V5raD1+qJrvVdXZv+OrnJzKTs+OjRAKPLm3vhdoW63cIZU/vi9t+zp2UnBEbPjMlRqs3NCrV2wtK7Bzr1RtNr353/KmpaYsfGsPjcsuaOv76zdEN87Jst3n3B9nvpo2fEh81JUFSXNf6yS9FryyZZr7+Sf5wQe7G580eG/vsjIeUPbrDpdVNSvVLC6dYd8+Ki3z64QnWH5c8lLjkoUQi+rmk6qMjZ+1pZEFlo0jgMTMlViTw0Oj75K2Kdw7Imrr6x+rhS1WhYp+cBElOQhSHw3Holhp3/5DtPAWZvP6ZR9IF7m555bX96v/rkmnWvhMist5e46lP9tjOF7vTH1KoWPi6TRqNixo1LmoUETV1qZ/f+gMRVbd3vbkvf8XklNU54/Qm89mrjR8ePvPJ0wvtPH0iqmxVlja0T5SG+3tLDSZzo1L9zgGZTD6Qa/eBCQj253A44gDfhSvn2JYfO3CyX/RKpVKGYQ4dOuS0tsH9gyORSFx17Ojo6Joah7+NDq6lS5fu2bPHtW0Al8iICf/Lkqlv7ss/XdXo6rbAA0coFG7durWwsHDTpk2ubgu4AMZ64UHRbxFzekyY2cLIBzqxC+DXSE5OJqKdO3e6uiHgGuhwhgfF6pxxoWLhuZpmjb4vJSJkzljpj8XyQVxWC2C/U6dOLVu2zNWtAJdB9MKDoqKlc0xY4G+njPN057ertF/Jir8768AaLQCAwYLohQdFgbyh4JbpxAAAzoexXgAAAKdC9AIAADgVohcAAMCpEL0AAABOhegFAABwKkQvAACAU2Fx0X3Bnc/btT53R2HpjsJLf3w0Wxri/9xn+63vjosa9dqy6exrhiGdwVDd3nXggnzQ74A4LXG02Mvz+3Plg1utVYDQa1ZK7JmrjdXtXQPYfXXOuMcykpa893WEv+gfv3t088HCE2W1g91GIqJR4cEb33+Bz+dt2vi/V4fmEADwIMNV77BxobblX8fP/zvvQl55nTTE/+VFOTNtHoE3KB5OHL3IwWe0OSTQx2v55JTYEP+hO8SgWP7sUmIG/NhcAIB7QPQOGxUtiv3nK74/V/7J0aKNO48yDC2blOzqRo1AE6eOD5OMOnPivKsbAgAjFjqch6Wajq7OHm2IyIfD4bCPd/f2cN/2/OP7z1ecvdq0Kjt1dJDYbGFKGtr+Z18+u0umNOLxiUmSQLHZYpG3KrbLLlVcf3JAToLkxUdvPF9v74YV7It+j6ubkhC1aMIYSaAvQ1Te3PnlyeKrbTceO+jj6f5EZsokaYSft0BnMNZ1dH939srFulb23Q+fejTc79qD05+fNfH5WRPZ16s/+k7d28e+jgrwXZE1dkxYoI+nh1qnL2/p/PJkcWt3z2B/eHcj8PJ87KkFB74+FDgqwJnHBYAHCqL3vmBhmHqFSqXTE1GnRuvlfo/fi5eHm6/AU9tnYG7uFx0dJH4kOXrfuYpvz1zx9fLMlF57iG/OGMmL87MaFKptshIPPm9eWvzruTNe3nG4qk1JRCUNba98c5SI1uSkhfj6vH3gJLuX7aPmcyclr8xOLalv++JksRuPO3us9M0nZv7560O1Hd3sBhvmTU6NGrX/fEWDQuXr5ZkYHpQaFWKN3vcPnvJw40X6+z4746G9RWVFNc1subbPaD2j15ZNZxg6cEHe1dMbKPKeGBse4e9rG71dWn29QkVERrOlXqGy7msrNjb27bffJqLc3FyHnnDOWvTk3B619uSh00tWz3d0XwAAOyF67wsms2X95z+yr/+dd/G223h7uAWLvLlczihfn9zMFHc+7+jl/k+qHxsZ8vLOI2VNHeyPR0qvEhGHaHXOOE1v30s7Duv6jERUUNnwwZr5T04Z9+ruY0Sk0unZ1O/RG/x9LKUN7f2qDfcTrcgae6KsdvPBwus1V3/01IIVk8e+uS+fiNz5vLTRob9crvk8/1rj9xSV8bgcaw3sk9KNJgsRNXVpbj1E/KgAP2/B+z8VHr9Sy5bsOlVqWwMR7T9fsf98BRG1qXqsH9cgioqNmDp38j9e+9RisQx65QAAVojeYWPhhISFExLY1xaGOXalZuuJC/22qWjutOauVbi/KEjo/XNJle76ZWKjUl3W3JkSEczjcs12xEx2QhSHw/mpuMqdz2NLDCbzlaaOsZEh7I8ms8VktsSG+Im9PLt11x7DZ7Y4MFNJbzQRUUpESIG8wWAyD6AGlkajycvLIyJH45PD4ax4bmlpUVlZcaWjBwUAcAiid9g4WVGfX1HHMIzOYKzt6O7RG27dpqlLfWthoNCLiNrVWtvCNlVPUniQ2NtTodHd89BhfkIienP5zFvfYsPbwjCfnbiwdvqEz55dUtPRfbVVcfpq07nrvcr2KG/uPF5WOzMlJichqrJVWdmmOFFWa+3Ntl97e/uWLVsc3YuIcuZmRkSH/e29TQPYFwDAIYjeYaNRqb7nQt7bDn/ejSNLaF7dfazXYOpXaL24/Km48uzVxvSY8KTwoKz4qNmp0m/PXPnqZLH99b9/sHBvUdl4SWhyRPDC8QmLJox54/s8h/J7wDw83Revmns276LBYBQH+LIlRCT09REH+HYrVE5oAwA8OBC9I1+nRkdEwSJv28IQXx+T2dKt67MtvFMOt3RpiEhnMMpbFHc5kKKn91BJ1aGSKk83/pvLZy4cH7/tZLFtncwdj3BNbUd3bUf3nqKyMD/h5ifnPpoW55zoFXgLBN6CzOnpmdPTbct//9Jqk9G0PnejbaFIJPLy8urt7VWpEMkAMBCI3pGvSanu0Giz4iI/z7/IDvdG+IsSwwKL69v6DfTq+owigQefxzWZbyqXyeuXTx67PDPl9b15FpsL5RBfnzZVDxHxeVw+l8uO1xKR3mjq1Ogi/X2ta5+s9RORv7fg1kZ6ebj1GkzWjdtUWoPJzOfxHD3ZkJCQVatWEdHmzZsZu6/ptWrtR3/falsyeUZGWmbKni9+bL4+SdtqxYoVs2fPPn78+AcffOBo8wAACNH7IGCIvswv3jA/663ls46UVrvzefPT4k0WZpusf29waWP7lISo9XMyZfJ6o8ncrtY2KtVE1KhUf11QsjI79d1Vc2Ty+h69IVTskx4dVt3exc559vcWbFk9r7CyoaajW9dnTI4IyogJ/+VyteXm8Gvu0ih7euenxXXr9B1qLRFZ4z9TGrEyK7VA3tDUpeYQ5YyRCAUex6/UOHqyPj4+2dnZRLRlyxb7FxcZjaZLRWW2JXEpsURUXV57640kuVwuERkMtxlrBwCwB6L3gZBXXmc0Wx7LSFyVnWphGHmLYpuspLJV2W+zw5eqQsU+OQmSnIQoDodje0uNXacv1ytUCyYkLJuYxONyOzW6K03thy9dW92k0RuOlFaPjQzJjIvkcjjtau0X+cX7z/e/F7SFYd7af/KpaeOffngCO1naekuNylZlaUP7RGm4v7fUYDI3KtXvHJDJ5PVD+7kMiFQqZRjm0KFDrm4IAAxXHIlE4qpjR0dH19Q4fFkzuJYuXbpnzx7XtgGGEaFQuHXr1sLCwk2bMBcaAAYI93AGcEBycjIR7dy509UNAYBhDB3OAA44derUsmXLXN0KABjecNULAADgVIheAAAAp0L0AgAAOBWiFwAAwKkQvQAAAE6F6AUAAHAqRC8AAIBTIXpHlNxJyXs3rAgVC13dEAAAuCPcUuO+4M7n7Vqfu6OwdEfhpT8+mi0N8X/us/3Wd1/PnZESEcy+NpjMzV2aE+W1+85V9Hvu0K83LXG02Mvz+3P9771sj7ufwuD63R+WT5w2oaKkast//3OIDgEAMHQQvcPG5/kXTWaLSOAxSRqxJictLiTg7QMn+23z7Zkre8+VG032PrGnn4cTR0cFigcWvU4TlxwzISvV1a0AABg4dDgPGwcvVu4/X7FNVrLhq5/qOruz4iNHB4n7bWNhGIPJbO9TaochHo+3/Nmlv+zv/50DAGAYwVXv8GMyWy7WtUoCxZH+vrUd3Wzh3g0rrBus++xAS7em316Z0ojHJyZJAsVmi0Xeqtguu1TR0sm+lZMgefHRLOuW1qpsHxrIIVqYnjAzOTbY19tiYVpUPccuVx+4IB+ic7yTmYunenh6HPn+xOzHHnbyoQEABgui975gYZh6hUql0xNRp0br5X6P30ug0IuI2O1Zr3xzlIgeToyemRJz6/Y5YyQvzs9qUKi2yUo8+Lx5afGv5854ecfhqjYlEZU0tLG7r8lJC/H1sfZjK3t6rTUsyUhck5Mmk9fvO1/uwedHB4szpZG20WvnKWzcuDE9PX337t3bt2+355Ox5R8knpc788t/7DIajI7uCwBw/0D03hdMZsv6z39kX/877+JttwkSefcZTV4ebunRYVlxkU1d6stNHdZ3SxvaiSgpLOjWHTlEq3PGaXr7XtpxWNdnJKKCyoYP1sx/csq4V3cfIyKVTs9GZo/e4O9jYavqZ1JsRKuq550DMmsJj8tx9BR+pdy1Sxqqm86dLPbwdB+K+gEAnAPRO2x8sGY++8JgMh8prd4mK7FzhnO4vyhI6P1zSRWbu0TUqFSXNXemRATzuFw7K9EbTWIvz5hgv+r2LrbEbBnImHJpaalWq62pqXF0x7EZSWMzEt/+8wcDOCgAwH0F0TtsbPqhwGg2h4qFj2UkBgq9tH0GO3dke6fb1VrbwjZVT1J4kNjbU6HR2VPJ1wWXNi6Z+t6Tc1u6NVVtypL6tuNXaoxmh1c37du3z9FdiMjN3S137eJTx87VVTUOYHcAgPsKonfYOFvdpDeaiEjeqvh77ownJo/96mTxr62UsffKtaKl87l/7Z8wOjQpIih9dFhOguSRpOiNu44ydtfwa8xYNNXXX5R3sFAc4EtE7h7uRMR344kDfPU6vb63zwltAAAYLIje4edyY/vZ6qZFExIOXpQrbGZC3UmnRkdEwSJv28IQXx+T2dKtuym07p6ivQajTF4vk9d/yjm/bsZDs1Ol0hD/ylbFAE7BUYEhfnw+76V3/tO2MDYx+o1P//L9lwd//u6YtZDL5QYHBxNRR0eH2TzA9c0AAEMK0Tss7T5zJSMm/PGJydbFP3fRpFR3aLRZcZGf519kh3sj/EWJYYHF9W39Bnp1fUaRwIPP45pu6Un28XTv0V/r4mYYpqlLQ0R8nsPrwpcsWRITE3Pq1KmCggL79zr2g6z49GXrj3x3/jN/+m1jbcv+bT+1Nt40KUwkEn344YdEtG7duvb228wXAwBwOUTvsFTe3FnW1DFrbOzus1cUGl1UoK9I4EFEwb4+RBQfGhAgFBBRg0Kt0ukZoi/zizfMz3pr+awjpdXufN78tHiThdkm699fXdrYPiUhav2cTJm83mgyt6u1jUo1+9a7K+c0KtVlzR1dPb1hfsIFExKauzTyFocveZOSktLT01tbWx2K3qbalqbaFuuP7AxnrVp7qais35Zc7rVvAwaDvWPhAABOhugdrnafLXtlydTfTEr++MjZVdmpk2IjrG+9MG8y+2LTDwX5FXVElFdeZzRbHstIXJWdamEYeYtim6ykslXZr87Dl6pCxT45CZKchCgOh2N7S42DxZWZ0ojF6WME7m7KHt2xKzW7Tl0e9JtI/3pSqZSIzpw5093d7eq2AADcHkcikbjq2NHR0QNYZDK4li5dumfPHte2AQbR008/PW/evBdffLGurs7VbQEAuD3cwxlGlJSUFJlMhtwFgPsZOpxhRHnhhRdc3QQAgHvAVS8AAIBTIXoBAACcCtELAADgVHyBQODCw7v26EQ0atSodevW3end+IQ4Itr48l+c2CIAABjhMM2KPt3+6Z3eevu1t5zZEgAAeBDwe3vvfRPgoePao7P0ev3dN7gfGgkAACMGxnoBAACcCtFLcyZZar/ru/C54eM/G4P9nPEIPAAAeJAheun0Ze6qV90+2cubP9mycQ0eMwcAAEML06you4dkJVxZCS3OMY+Pv++eBwAAACMMrnpvUKo5QhevdQIAgJEP0XsDwxBxXN0IAAAY6RC9N1gY4iJ6AQBgiCF6b1D3kFjIuLu5uh0AADCiIXpvOHGRy+PSS0+aQvwZPs/VrQEAgBEK0XvDN7/w/vk97/eLzUWfGd5bb3R1cwAAYGTC4qIb5k22PLPI/GMhd8dhXnUzRn0BAGBIIHpvWJBltjD0h/fdevtc3RQAABi50OF8g8ibujQc5C4AAAwpRO8NHA4xuIUzAAAMMUTvDZ7uZMItnAEAYIgheonLIR8BTUiwpMRaGtsxuwoAAIYWplnRrImWT182ElGXhrN5J9bzAgDA0EL00qnL3AV/cldrqb6p7L9WAAAA50lEQVSVY8aDiwAAYIgheknVQ8WV6GcGAAAn4QsErnxOnmuPzvL09Lz7BvdDIwEAYMTAVS+tXbnW1U0AAIAHCEcikbjq2NHR0TU1Na46OgAAgEtgcREAAIBTIXoBAACcCtELAADgVIheAAAAp0L0AgAAOBWiFwAAwKkQvQAAAE6F6AUAAHAqRC8AAIBTIXoBAACcCtELAADgVIheAAAAp0L0AgAAOBWiFwAAwKkQvQAAAE6F6AUAAHAqRC8AAIBTIXoBAACcCtELAADgVIheAAAAp0L0AgAAOBWiFwAAwKkQvQAAAE71/5g0ACUzi+/0AAAAAElFTkSuQmCC;" vertex="1" parent="1">
          <mxGeometry x="380" y="720" width="638" height="238" as="geometry" />
        </mxCell>
        <mxCell id="GE2y2JJj0jx4YuX15eOx-13" value="" style="rounded=1;whiteSpace=wrap;html=1;" vertex="1" parent="1">
          <mxGeometry x="920" y="250" width="130" height="110" as="geometry" />
        </mxCell>
        <mxCell id="GE2y2JJj0jx4YuX15eOx-15" value="1" style="ellipse;shape=cloud;whiteSpace=wrap;html=1;" vertex="1" parent="1">
          <mxGeometry x="940" y="260" width="45" height="50" as="geometry" />
        </mxCell>
        <mxCell id="GE2y2JJj0jx4YuX15eOx-16" value="2" style="ellipse;shape=cloud;whiteSpace=wrap;html=1;" vertex="1" parent="1">
          <mxGeometry x="985" y="295" width="45" height="50" as="geometry" />
        </mxCell>
        <mxCell id="GE2y2JJj0jx4YuX15eOx-17" value="100" style="rounded=1;whiteSpace=wrap;html=1;" vertex="1" parent="1">
          <mxGeometry x="750" y="400" width="130" height="110" as="geometry" />
        </mxCell>
        <mxCell id="GE2y2JJj0jx4YuX15eOx-18" value="" style="ellipse;shape=cloud;whiteSpace=wrap;html=1;fillColor=#f5f5f5;fontColor=#333333;strokeColor=#666666;" vertex="1" parent="1">
          <mxGeometry x="755" y="410" width="120" height="80" as="geometry" />
        </mxCell>
        <mxCell id="GE2y2JJj0jx4YuX15eOx-19" value="100" style="rounded=1;whiteSpace=wrap;html=1;" vertex="1" parent="1">
          <mxGeometry x="560" y="400" width="130" height="110" as="geometry" />
        </mxCell>
        <mxCell id="GE2y2JJj0jx4YuX15eOx-20" value="1" style="ellipse;shape=cloud;whiteSpace=wrap;html=1;" vertex="1" parent="1">
          <mxGeometry x="770" y="410" width="45" height="50" as="geometry" />
        </mxCell>
        <mxCell id="GE2y2JJj0jx4YuX15eOx-21" value="2" style="ellipse;shape=cloud;whiteSpace=wrap;html=1;" vertex="1" parent="1">
          <mxGeometry x="815" y="445" width="45" height="50" as="geometry" />
        </mxCell>
        <mxCell id="GE2y2JJj0jx4YuX15eOx-22" value="" style="rounded=1;whiteSpace=wrap;html=1;" vertex="1" parent="1">
          <mxGeometry x="920" y="400" width="130" height="110" as="geometry" />
        </mxCell>
        <mxCell id="GE2y2JJj0jx4YuX15eOx-23" value="1" style="ellipse;shape=cloud;whiteSpace=wrap;html=1;" vertex="1" parent="1">
          <mxGeometry x="940" y="410" width="45" height="50" as="geometry" />
        </mxCell>
        <mxCell id="GE2y2JJj0jx4YuX15eOx-24" value="2" style="ellipse;shape=cloud;whiteSpace=wrap;html=1;" vertex="1" parent="1">
          <mxGeometry x="985" y="445" width="45" height="50" as="geometry" />
        </mxCell>
        <mxCell id="GE2y2JJj0jx4YuX15eOx-25" value="100" style="rounded=1;whiteSpace=wrap;html=1;" vertex="1" parent="1">
          <mxGeometry x="750" y="560" width="130" height="110" as="geometry" />
        </mxCell>
        <mxCell id="GE2y2JJj0jx4YuX15eOx-26" value="" style="ellipse;shape=cloud;whiteSpace=wrap;html=1;fillColor=#f5f5f5;fontColor=#333333;strokeColor=#666666;" vertex="1" parent="1">
          <mxGeometry x="755" y="570" width="120" height="80" as="geometry" />
        </mxCell>
        <mxCell id="GE2y2JJj0jx4YuX15eOx-27" value="100" style="rounded=1;whiteSpace=wrap;html=1;" vertex="1" parent="1">
          <mxGeometry x="560" y="560" width="130" height="110" as="geometry" />
        </mxCell>
        <mxCell id="GE2y2JJj0jx4YuX15eOx-28" value="1" style="ellipse;shape=cloud;whiteSpace=wrap;html=1;" vertex="1" parent="1">
          <mxGeometry x="770" y="570" width="45" height="50" as="geometry" />
        </mxCell>
        <mxCell id="GE2y2JJj0jx4YuX15eOx-29" value="2" style="ellipse;shape=cloud;whiteSpace=wrap;html=1;" vertex="1" parent="1">
          <mxGeometry x="815" y="605" width="45" height="50" as="geometry" />
        </mxCell>
        <mxCell id="GE2y2JJj0jx4YuX15eOx-30" value="" style="rounded=1;whiteSpace=wrap;html=1;" vertex="1" parent="1">
          <mxGeometry x="920" y="560" width="130" height="110" as="geometry" />
        </mxCell>
        <mxCell id="GE2y2JJj0jx4YuX15eOx-31" value="1" style="ellipse;shape=cloud;whiteSpace=wrap;html=1;" vertex="1" parent="1">
          <mxGeometry x="940" y="570" width="45" height="50" as="geometry" />
        </mxCell>
        <mxCell id="GE2y2JJj0jx4YuX15eOx-32" value="2" style="ellipse;shape=cloud;whiteSpace=wrap;html=1;" vertex="1" parent="1">
          <mxGeometry x="985" y="605" width="45" height="50" as="geometry" />
        </mxCell>
        <mxCell id="GE2y2JJj0jx4YuX15eOx-33" value="" style="html=1;verticalLabelPosition=bottom;align=center;labelBackgroundColor=#ffffff;verticalAlign=top;strokeWidth=2;strokeColor=#0080F0;shadow=0;dashed=0;shape=mxgraph.ios7.icons.add;" vertex="1" parent="1">
          <mxGeometry x="1070" y="366" width="30" height="30" as="geometry" />
        </mxCell>
        <mxCell id="GE2y2JJj0jx4YuX15eOx-34" value="" style="html=1;verticalLabelPosition=bottom;align=center;labelBackgroundColor=#ffffff;verticalAlign=top;strokeWidth=2;strokeColor=#0080F0;shadow=0;dashed=0;shape=mxgraph.ios7.icons.add;" vertex="1" parent="1">
          <mxGeometry x="1070" y="520" width="30" height="30" as="geometry" />
        </mxCell>
      </root>
    </mxGraphModel>
  </diagram>
</mxfile>
